<svg class="svg svg-logo-plus" data-name="logo premium" xmlns="http://www.w3.org/2000/svg" x="0px" y="0px" viewBox="0 0 850 225" style="enable-background:new 0 0 850 225;" xml:space="preserve">
  <defs><style>
      .red {
          fill: rgba(204, 0, 0, 0.9);
        }
      .white {
          fill: #FFF;
        }
        </style>
  </defs>
    <g>
        <path class="st0" d="M360.5,4.2 M360.5,100.7 M563.7,100.7 M563.7,4.2"/>
        <path class="red" d="M630.7,193.5c0-16.6,13.1-30,29.2-30c16.1,0,29.1,13.4,29.1,30c0,16.6-13.1,30-29.1,30
            C643.8,223.5,630.7,210.1,630.7,193.5L630.7,193.5L630.7,193.5L630.7,193.5z"/>
        <path class="red" d="M6,31.5c0-16.6,13-30,29.1-30c16.1,0,29.1,13.4,29.1,30c0,16.6-13,30-29.1,30C19,61.5,6,48.1,6,31.5L6,31.5
            L6,31.5L6,31.5z"/>
        <polygon class="red" points="687.4,147.5 634.9,147.5 634.9,9.1 687.4,9.1 687.4,147.5 	"/>
        <path class="red" d="M301.6,60.2c-3-2.9-7.6-3.2-11.2-2.1c-3.4,1.3-5.6,4.9-6.1,8.3l-0.2,89c0.6,3.6,3.3,6.9,6.8,8.1
            c2.8,0.9,5.6,0.5,8.2-0.2c2.8-1.9,5.3-3.3,5.3-8.7l0.1-87.8C304.3,63.7,303.1,62.1,301.6,60.2L301.6,60.2L301.6,60.2L301.6,60.2z
            M351.3,35.4c5.3,7,7.5,19.5,7.6,31.1l-0.3,90.6c-0.7,23.6-13.9,49.3-34.3,57.3c-20.3,9.7-52.2,8.2-70.2-5.9
            c-15.6-12.2-23.6-29.9-24.4-49.6l0.1-101c1.3-14.3,8.6-29.7,19.8-36.5c8.3-5.7,17.6-9.3,27.7-9.9C298.4,8.9,335.8,8.6,351.3,35.4
            L351.3,35.4L351.3,35.4L351.3,35.4z"/>
        <path class="red" d="M558.6,142.4c0,0.1-11.2-59.8-11.2-59.9c0,0,0-1-11.6,59.9C535.8,142.4,558.5,142.5,558.6,142.4L558.6,142.4
            L558.6,142.4L558.6,142.4z M590.4,10.3c1.4,0.4,31.4,208,31.4,208.6c-0.4,0.1-49.8,0-49.8,0c0.1,0.2-5.3-31.2-5.3-31.2
            c0-0.1-37.9,0.1-37.9,0c-0.1,0-5.8,31.2-5.9,31.2c-0.4,0-51,0.1-51.2,0c0,0,37.5-208.3,37.4-208.6
            C509.2,10.6,590.4,10.3,590.4,10.3L590.4,10.3L590.4,10.3L590.4,10.3z"/>
        <path class="red" d="M432.8,164.7H465l0,54.5c-0.2-0.2-85.4,0-85.4,0l0-208.9h53.4C432.8,10.3,432.9,165.1,432.8,164.7L432.8,164.7
            L432.8,164.7z"/>
        <polygon class="red" points="136.1,85 157.1,85 157.1,10.9 209,10.9 209,219.3 157.4,219.3 157.5,137.6 136.6,137.6 136.5,219.3 83.3,219.3 83.3,10.9 136,10.9 136.1,85 	"/>
        <g>
            <polygon class="red" points="62.7,219.3 10.7,219.3 10.8,68.5 62.7,68.5 62.7,219.3 		"/>
            <path class="red" d="M830.8,70.1c-21.3-26.3-60.9-29.5-88-7.5c-9.7,7.8-16.9,18.1-20.7,29.8l-17.5,80l81.9-0.5
                c12.2-1.4,23.8-6.2,33.4-14.1C847,135.7,852.1,96.3,830.8,70.1L830.8,70.1z"/>
        </g>
        <path class="white" d="M810,108.5c0-3.2-2.3-5.5-5.5-5.5H787V85c0-3.2-2.3-5.5-5.5-5.5c-3.1,0-5.5,2.4-5.5,5.5v18h-17.9
            c-3.1,0-5.5,2.4-5.5,5.5s2.3,5.5,5.5,5.5h17.9v17.8c0,3.2,2.3,5.5,5.5,5.5c3.1,0,5.5-2.4,5.5-5.5V114h17.5
            C807.6,114,810,111.7,810,108.5L810,108.5z"/>
    </g>
</svg>
